<?xml version="1.0" standalone="no"?>
<!DOCTYPE svg PUBLIC "-//W3C//DTD SVG 20010904//EN"
 "http://www.w3.org/TR/2001/REC-SVG-20010904/DTD/svg10.dtd">
<svg version="1.0" xmlns="http://www.w3.org/2000/svg"
 width="700.000000pt" height="700.000000pt" viewBox="0 0 700.000000 700.000000"
 preserveAspectRatio="xMidYMid meet">
<metadata>
Created by potrace 1.11, written by Peter Selinger 2001-2013
</metadata>
<g transform="translate(0.000000,700.000000) scale(0.100000,-0.100000)"
fill="#000000" stroke="none">
<path d="M3225 6959 c-38 -4 -97 -10 -130 -13 -33 -4 -71 -8 -85 -11 -14 -3
-41 -7 -60 -9 -19 -3 -44 -7 -55 -9 -11 -2 -50 -10 -87 -17 l-68 -12 -53 -72
c-30 -39 -57 -78 -60 -86 -4 -8 -16 -28 -26 -45 -107 -166 -240 -536 -305
-845 -22 -101 -29 -142 -51 -270 -24 -146 -30 -184 -40 -275 -3 -27 -8 -61
-10 -75 -5 -29 -16 -139 -20 -190 -1 -19 -5 -75 -9 -125 -12 -153 -14 -195
-22 -360 -8 -191 -11 -667 -4 -782 l5 -82 310 537 c304 526 312 538 365 575
30 20 71 46 90 57 19 11 62 38 95 60 33 22 67 43 75 47 8 4 43 24 78 45 34 21
67 38 72 38 6 0 10 5 10 10 0 6 4 10 10 10 5 0 44 20 86 45 41 25 78 45 80 45
2 0 21 10 42 23 124 78 590 310 827 412 186 80 200 85 370 148 248 92 497 163
708 202 170 31 254 39 424 39 73 1 133 3 133 6 0 10 -151 145 -250 225 -272
218 -574 393 -901 523 -297 118 -617 194 -949 226 -146 14 -482 17 -595 5z"/>
<path d="M2400 6791 c-443 -149 -832 -372 -1182 -678 -104 -91 -262 -249 -329
-328 -19 -22 -42 -49 -53 -60 -34 -37 -162 -209 -223 -300 -137 -205 -270
-462 -358 -695 -55 -146 -58 -155 -58 -195 -1 -68 150 -326 298 -510 78 -98
295 -322 406 -420 31 -28 71 -64 90 -80 81 -72 301 -244 455 -356 278 -202
741 -492 1062 -665 37 -20 87 -48 111 -62 53 -30 52 -27 -19 94 -27 46 -50 89
-50 94 0 6 -4 10 -10 10 -5 0 -10 4 -10 10 0 5 -22 47 -49 92 -27 46 -58 99
-68 118 -11 19 -62 107 -113 195 -51 88 -103 178 -115 200 -13 22 -50 86 -83
143 -72 123 -66 66 -67 707 0 390 6 617 20 770 2 22 7 78 10 123 4 46 8 92 10
102 2 10 6 56 10 101 4 46 8 86 10 89 2 3 6 30 9 60 6 55 11 88 20 145 3 17 8
50 11 75 22 153 115 558 152 660 3 8 22 62 43 120 48 136 110 271 182 393 31
53 52 97 45 97 -7 0 -77 -22 -157 -49z"/>
<path d="M5500 5849 c-156 -23 -276 -50 -452 -100 -173 -49 -402 -128 -493
-169 -11 -5 -49 -20 -85 -34 -67 -26 -148 -60 -235 -101 -27 -12 -81 -37 -120
-55 -104 -48 -347 -170 -450 -225 -247 -132 -634 -358 -678 -395 -4 -3 271 -6
610 -5 l618 0 125 -63 c195 -100 632 -349 638 -364 2 -4 8 -8 13 -8 11 0 146
-85 354 -223 725 -483 1231 -963 1465 -1391 35 -64 45 -75 51 -60 16 45 65
305 75 399 3 28 7 56 9 62 8 23 19 258 19 398 -1 130 -8 282 -19 365 -2 19 -7
57 -11 84 -3 27 -8 58 -10 70 -2 11 -6 38 -10 61 -39 270 -166 661 -310 948
-139 279 -333 566 -514 760 -39 41 -52 49 -100 57 -93 15 -354 9 -490 -11z"/>
<path d="M4330 4586 c0 -3 38 -70 83 -148 46 -79 95 -163 109 -188 14 -25 116
-201 227 -392 l201 -348 7 -117 c9 -153 8 -827 -1 -1008 -10 -195 -13 -243
-32 -450 -7 -83 -22 -213 -29 -265 -2 -14 -7 -45 -10 -70 -3 -25 -8 -56 -10
-70 -2 -14 -7 -45 -10 -70 -3 -25 -8 -52 -10 -60 -2 -8 -7 -31 -10 -50 -39
-249 -133 -592 -223 -815 -26 -65 -148 -300 -173 -334 -12 -17 -21 -33 -18
-35 5 -5 265 80 349 113 128 51 431 200 461 227 8 8 18 14 22 14 14 0 178 108
287 189 340 252 624 552 852 901 132 201 251 435 333 650 84 221 82 197 25
317 -73 154 -191 329 -330 488 -68 78 -282 291 -358 357 -42 36 -87 75 -100
86 -13 11 -40 34 -60 50 -20 16 -62 49 -92 74 -30 24 -91 71 -135 103 -44 33
-84 64 -90 68 -88 73 -510 349 -775 509 -145 87 -415 238 -425 238 -4 0 -20 9
-36 21 -16 11 -29 18 -29 15z"/>
<path d="M132 4334 c-23 -92 -50 -222 -57 -279 -2 -11 -6 -39 -9 -62 -24 -155
-31 -270 -30 -508 0 -214 4 -275 25 -440 75 -593 325 -1189 700 -1670 43 -55
104 -128 136 -162 l58 -62 75 -9 c78 -10 327 -8 393 2 20 3 54 8 75 11 73 11
99 16 237 46 142 31 174 40 390 109 423 136 972 389 1500 692 164 95 385 231
381 235 -2 3 -280 5 -618 4 l-613 0 -150 79 c-82 43 -211 113 -285 156 -74 42
-155 88 -180 102 -25 14 -112 68 -194 119 -82 51 -150 93 -152 93 -7 0 -351
235 -457 312 -141 103 -322 243 -347 268 -3 3 -32 27 -65 55 -95 78 -150 130
-306 285 -204 204 -355 398 -455 583 l-42 80 -10 -39z"/>
<path d="M4836 3298 c-7 -13 -123 -212 -256 -443 -387 -671 -345 -606 -420
-654 -130 -83 -211 -133 -235 -147 -11 -6 -85 -49 -165 -96 -306 -179 -666
-367 -935 -487 -66 -30 -138 -62 -160 -72 -95 -42 -444 -174 -515 -195 -8 -2
-83 -24 -165 -48 -151 -44 -410 -102 -501 -111 -27 -3 -67 -8 -89 -10 -22 -3
-104 -6 -182 -7 l-143 -2 46 -44 c547 -516 1272 -851 2009 -927 233 -24 563
-24 755 0 214 26 361 55 385 75 52 44 202 306 264 463 75 191 172 529 196 687
2 14 13 77 24 140 20 119 46 301 56 405 3 33 8 78 10 100 7 57 13 135 20 245
4 52 9 115 12 140 6 58 14 1010 8 1010 -3 0 -11 -10 -19 -22z"/>
</g>
</svg>
