<svg xmlns="http://www.w3.org/2000/svg" viewBox="0 0 1615 1615" width="600" height="600">
	<style>
		tspan { white-space:pre }
		.shp0 { fill: #5d4970 } 
	</style>
	<path id="Layer" class="shp0" d="M1111.5,1167.7c12.7,-133.31 10.56,-258.62 8.23,-320.42l-143.8,249.06l0.21,0.31c-0.05,0.03 -0.27,0.18 -0.64,0.43l-0.49,0.85h-0.79c-17.71,11.73 -154.61,101.31 -316.72,175.42c-101.92,46.6 -193.85,78.12 -273.23,93.69c-51.27,10.06 -97.47,13.43 -138.33,10.18c144.4,142.12 342.52,229.81 561.13,229.81c60.05,0 118.55,-6.63 174.82,-19.17c29.58,-34.93 54.81,-82.6 75.35,-142.53c25.58,-74.65 43.84,-168.06 54.28,-277.63z" />
	<path id="Layer" class="shp0" d="M639.1,516.15h0.79c17.71,-11.73 154.61,-101.31 316.72,-175.42c101.92,-46.6 193.85,-78.12 273.23,-93.68c51.27,-10.06 97.47,-13.43 138.33,-10.19c-144.4,-142.12 -342.52,-229.81 -561.13,-229.81c-60.05,0 -118.55,6.63 -174.82,19.17c-29.58,34.93 -54.81,82.6 -75.35,142.53c-25.58,74.65 -43.84,168.06 -54.28,277.63c-12.7,133.31 -10.56,258.62 -8.23,320.42l143.8,-249.06l-0.21,-0.31c0.05,-0.03 0.27,-0.18 0.64,-0.43l0.49,-0.85z" />
	<path id="Layer" class="shp0" d="M1234.8,271.26c-77.44,15.17 -167.46,46.06 -267.58,91.81c-121.8,55.66 -229.25,120.16 -281.61,153.09h287.59l0.17,-0.34c0.05,0.03 0.29,0.14 0.69,0.34h0.99l0.4,0.69c19.01,9.47 165.04,83.24 310.28,186.58c91.32,64.97 164.58,128.82 217.75,189.78c34.43,39.47 60.5,77.89 78.12,114.99c16.64,-64.27 25.5,-131.67 25.5,-201.14c0,-209.04 -80.18,-399.34 -211.46,-541.86c-44.99,-8.1 -98.79,-6.1 -160.84,6.06z" />
	<path id="Layer" class="shp0" d="M1484.9,909.55c-51.86,-59.48 -123.62,-122 -213.3,-185.83c-109.1,-77.65 -218.69,-138.45 -273.38,-167.34l143.8,249.06l0.38,-0.03c0,0.06 0.02,0.32 0.05,0.77l0.49,0.85l-0.4,0.69c1.31,21.2 10.43,184.55 -6.44,362c-10.61,111.57 -29.28,206.94 -55.48,283.47c-16.97,49.56 -37.2,91.34 -60.52,125.15c261.82,-72.16 469.85,-274.06 550.59,-532.21c-15.45,-43.11 -44.13,-88.81 -85.79,-136.59z" />
	<path id="Layer" class="shp0" d="M379.35,1342.8c77.44,-15.17 167.46,-46.06 267.58,-91.81c121.8,-55.66 229.25,-120.16 281.61,-153.09h-287.59l-0.17,0.34c-0.05,-0.03 -0.29,-0.14 -0.69,-0.34h-0.99l-0.4,-0.69c-19.01,-9.47 -165.04,-83.24 -310.28,-186.58c-91.32,-64.97 -164.58,-128.82 -217.75,-189.78c-34.43,-39.47 -60.5,-77.89 -78.12,-114.99c-16.64,64.27 -25.5,131.67 -25.5,201.14c0,209.04 80.18,399.34 211.46,541.86c44.99,8.1 98.79,6.1 160.84,-6.06z" />
	<path id="Layer" class="shp0" d="M129.19,704.55c51.86,59.48 123.62,122 213.3,185.83c109.1,77.65 218.69,138.45 273.38,167.34l-143.8,-249.06l-0.38,0.03c0,-0.06 -0.02,-0.32 -0.05,-0.77l-0.49,-0.85l0.4,-0.69c-1.31,-21.2 -10.44,-184.55 6.44,-362c10.61,-111.57 29.28,-206.94 55.48,-283.47c16.97,-49.56 37.21,-91.34 60.52,-125.15c-261.82,72.16 -469.85,274.06 -550.59,532.21c15.45,43.11 44.13,88.81 85.79,136.59z" />
</svg>